# xmcd
#
# Track frame offsets:
#	150
#	18885
#	33412
#
# Disc length: 654 seconds
#
# Revision: 0
# Processed by: cddbd v1.5.1PL2 Copyright (c) Steve Scherf et al.
# Submitted via: dBpowerAMP V4.0
#
DISCID=17028c03
DTITLE=P.O.D. - Live at Cornerstone
DYEAR=1900
DGENRE=Christian Rock
TTITLE0=Will You
TTITLE1=Execute the Sounds
TTITLE2=Lie Down
EXTD=
EXTT0=
EXTT1=
EXTT2=
PLAYORDER=
